<svg xmlns="http://www.w3.org/2000/svg">
    <symbol id="barbell">
        <svg enable-background="new 0 0 512 512" viewBox="0 0 512 512" xmlns="http://www.w3.org/2000/svg"><g><path d="m494.5 208.5h-12.5v-50.5c0-11.855-9.645-21.5-21.5-21.5h-32c-2.265 0-4.448.357-6.5 1.01v-3.01c0-16.266-13.234-29.5-29.5-29.5h-40c-16.266 0-29.5 13.234-29.5 29.5v88.291h-134v-88.291c0-16.266-13.234-29.5-29.5-29.5h-40c-16.266 0-29.5 13.234-29.5 29.5v3.01c-2.052-.653-4.235-1.01-6.5-1.01h-32c-11.855 0-21.5 9.645-21.5 21.5v9.687c0 4.142 3.358 7.5 7.5 7.5s7.5-3.358 7.5-7.5v-9.687c0-3.584 2.916-6.5 6.5-6.5h32c3.584 0 6.5 2.916 6.5 6.5v196c0 3.584-2.916 6.5-6.5 6.5h-32c-3.584 0-6.5-2.916-6.5-6.5v-154.221c0-4.142-3.358-7.5-7.5-7.5s-7.5 3.358-7.5 7.5v8.721h-12.5c-9.649 0-17.5 7.851-17.5 17.5v60c0 9.649 7.851 17.5 17.5 17.5h12.5v50.5c0 11.855 9.645 21.5 21.5 21.5h32c2.265 0 4.448-.357 6.5-1.01v3.01c0 16.266 13.234 29.5 29.5 29.5h40c16.266 0 29.5-13.234 29.5-29.5v-88.291h10.916c4.142 0 7.5-3.358 7.5-7.5s-3.358-7.5-7.5-7.5h-10.916v-36.418h134v36.418h-90.572c-4.142 0-7.5 3.358-7.5 7.5s3.358 7.5 7.5 7.5h90.572v88.291c0 16.266 13.234 29.5 29.5 29.5h40c16.266 0 29.5-13.234 29.5-29.5v-3.01c2.052.653 4.235 1.01 6.5 1.01h32c11.855 0 21.5-9.645 21.5-21.5v-10.128c0-4.142-3.358-7.5-7.5-7.5s-7.5 3.358-7.5 7.5v10.128c0 3.584-2.916 6.5-6.5 6.5h-32c-3.584 0-6.5-2.916-6.5-6.5v-196c0-3.584 2.916-6.5 6.5-6.5h32c3.584 0 6.5 2.916 6.5 6.5v153.5c0 4.142 3.358 7.5 7.5 7.5s7.5-3.358 7.5-7.5v-8h12.5c9.649 0 17.5-7.851 17.5-17.5v-60c0-9.649-7.851-17.5-17.5-17.5zm-477 80c-1.378 0-2.5-1.122-2.5-2.5v-60c0-1.378 1.122-2.5 2.5-2.5h12.5v65zm156.5 89c0 7.995-6.505 14.5-14.5 14.5h-40c-7.995 0-14.5-6.505-14.5-14.5v-243c0-7.995 6.505-14.5 14.5-14.5h40c7.995 0 14.5 6.505 14.5 14.5zm233 0c0 7.995-6.505 14.5-14.5 14.5h-40c-7.995 0-14.5-6.505-14.5-14.5v-243c0-7.995 6.505-14.5 14.5-14.5h40c7.995 0 14.5 6.505 14.5 14.5zm90-91.5c0 1.378-1.122 2.5-2.5 2.5h-12.5v-65h12.5c1.378 0 2.5 1.122 2.5 2.5z"/></g></svg>

    </symbol>

    <symbol id="bestfit">
        <svg enable-background="new 0 0 512 512" viewBox="0 0 512 512" xmlns="http://www.w3.org/2000/svg"><g><g><path d="m489.5 237.089h-55.637c4.229-11.215 6.656-23.141 7.1-35.385 1.021-28.107-8.445-55.313-26.656-76.606-2.693-3.148-7.427-3.518-10.574-.825-3.148 2.692-3.518 7.426-.825 10.574 15.758 18.426 23.949 41.976 23.065 66.313-.888 24.461-10.903 47.47-28.2 64.787-.037.037-.073.074-.109.112-.505.527-50.992 53.208-92.341 95.039-2.912 2.946-2.884 7.695.062 10.606 1.462 1.445 3.367 2.166 5.272 2.166 1.934 0 3.868-.744 5.334-2.228 33.468-33.859 72.889-74.788 87.077-89.553h86.432c12.407 0 22.5-10.093 22.5-22.5s-10.093-22.5-22.5-22.5zm0 30h-72.681c3.773-4.742 7.135-9.759 10.066-15h62.615c4.136 0 7.5 3.364 7.5 7.5s-3.364 7.5-7.5 7.5z"/><path d="m282.793 383.693c-15.685 15.551-23.223 22.514-26.823 25.63-17.301-14.87-88.65-88.058-136.286-137.688l52.437-52.436 99.838 99.837c4.25 4.25 9.899 6.591 15.91 6.591s11.661-2.341 15.91-6.59l44.372-44.372c8.773-8.772 8.773-23.047 0-31.819-4.25-4.25-9.9-6.591-15.91-6.591s-11.661 2.341-15.91 6.591l-28.462 28.462-99.838-99.837c-4.25-4.25-9.9-6.591-15.91-6.591s-11.661 2.341-15.91 6.591l-25.539 25.539c-2.929 2.929-2.929 7.678 0 10.606 2.929 2.929 7.678 2.929 10.606 0l25.539-25.539c1.417-1.417 3.299-2.197 5.303-2.197 2.003 0 3.886.78 5.303 2.197l105.142 105.141c2.929 2.929 7.678 2.929 10.606 0l33.766-33.766c1.417-1.417 3.299-2.197 5.303-2.197s3.886.78 5.303 2.197c2.924 2.924 2.924 7.682 0 10.606l-44.373 44.373c-1.416 1.417-3.299 2.196-5.303 2.196s-3.887-.78-5.303-2.197l-105.141-105.141c-2.929-2.929-7.678-2.929-10.606 0l-58.014 58.013c-1.417 1.417-3.3 2.197-5.303 2.197h-81c-4.136 0-7.5-3.365-7.5-7.5 0-4.136 3.364-7.5 7.5-7.5h74.787c1.989 0 3.897-.79 5.303-2.197l16.105-16.105c2.929-2.929 2.929-7.678 0-10.606-2.929-2.929-7.678-2.929-10.606 0l-13.909 13.908h-1.33c-14.187-35.585-5.885-76.911 21.376-104.205 18.229-18.246 42.462-28.294 68.238-28.294h.006c25.772.001 50.001 10.05 68.224 28.293 1.407 1.408 3.316 2.2 5.307 2.2s3.899-.792 5.307-2.2c15.743-15.762 35.74-25.353 57.83-27.734 21.459-2.312 43.296 2.679 61.485 14.06 3.511 2.197 8.139 1.131 10.336-2.379 2.197-3.512 1.132-8.139-2.38-10.336-21.027-13.157-46.257-18.93-71.049-16.257-22.756 2.454-44.34 11.993-61.522 27.068-20.347-17.924-46.189-27.714-73.537-27.715-.003 0-.003 0-.007 0-29.783 0-57.788 11.611-78.851 32.693-30.079 30.115-40.172 75.019-26.735 114.806h-54.378c-12.407 0-22.5 10.093-22.5 22.5s10.093 22.5 22.5 22.5h81c.637 0 1.267-.04 1.895-.092 7.774 8.101 38.5 40.076 69.454 71.712 20.949 21.41 37.901 38.477 50.386 50.727 25.638 25.154 27.139 25.154 30.765 25.154 3.837 0 5.426 0 37.354-31.655 2.942-2.917 2.962-7.665.046-10.606-2.918-2.943-7.667-2.962-10.607-.046z"/></g></g></svg>  
    </symbol>

    <symbol id="pilates">
        <svg enable-background="new 0 0 512 512" viewBox="0 0 512 512" xmlns="http://www.w3.org/2000/svg"><g id="XMLID_1715_"><g id="XMLID_5_"><path id="XMLID_6_" d="m256 290.88c2.63 0 5.21-1.07 7.069-2.93 1.86-1.86 2.931-4.44 2.931-7.07s-1.07-5.21-2.931-7.07c-1.859-1.86-4.439-2.93-7.069-2.93s-5.21 1.07-7.07 2.93-2.93 4.44-2.93 7.07 1.069 5.21 2.93 7.07c1.86 1.86 4.44 2.93 7.07 2.93z"/><path id="XMLID_448_" d="m256 250.38c2.63 0 5.21-1.07 7.069-2.93 1.86-1.86 2.931-4.44 2.931-7.07s-1.07-5.21-2.931-7.07c-1.859-1.86-4.439-2.93-7.069-2.93s-5.21 1.07-7.07 2.93-2.93 4.44-2.93 7.07c0 2.64 1.069 5.21 2.93 7.07 1.86 1.86 4.44 2.93 7.07 2.93z"/><path id="XMLID_1039_" d="m256 209.88c2.63 0 5.21-1.07 7.069-2.93 1.86-1.86 2.931-4.44 2.931-7.07s-1.07-5.21-2.931-7.07c-1.859-1.86-4.439-2.93-7.069-2.93s-5.21 1.07-7.07 2.93-2.93 4.44-2.93 7.07c0 2.64 1.069 5.21 2.93 7.07 1.86 1.86 4.44 2.93 7.07 2.93z"/><path id="XMLID_1043_" d="m502 175.382c-26.105 0-51.224 8.692-71.584 24.343v-72.843c0-5.523-4.477-10-10-10-36.476 0-68.348 20.041-85.22 49.681-11.772-40.904-37.471-77.055-73.555-101.704-3.402-2.323-7.879-2.323-11.281 0-36.086 24.649-61.785 60.803-73.557 101.709-16.872-29.642-48.741-49.686-85.219-49.686-5.522 0-10 4.477-10 10v72.843c-20.36-15.651-45.48-24.343-71.584-24.343-5.523 0-10 4.477-10 10v24.884c0 80.927 59.63 148.187 137.26 160.156-11.87 11.571-19.26 27.716-19.26 45.562v22.898c0 3.58 1.913 6.887 5.018 8.67 1.543.887 3.263 1.33 4.982 1.33 1.739 0 3.48-.454 5.035-1.36l18.488-10.773c16.689-9.726 35.722-14.867 55.038-14.867 15.905 0 30.852-6.202 42.084-17.463 2.766-2.773 5.221-5.772 7.355-8.952 2.134 3.18 4.589 6.179 7.354 8.952 11.232 11.261 26.179 17.463 42.084 17.463 19.317 0 38.35 5.141 55.038 14.867l18.488 10.774c1.556.906 3.295 1.36 5.035 1.36 1.72 0 3.44-.443 4.982-1.33 3.104-1.784 5.018-5.09 5.018-8.67v-22.899c0-17.853-7.397-34.003-19.274-45.576 18.18-2.809 35.822-8.683 51.985-17.391 4.862-2.62 6.68-8.685 4.061-13.547s-8.685-6.68-13.547-4.061c-18.811 10.135-39.919 15.877-61.388 16.77 43.499-25.28 73.148-71.874 74.528-125.38 16.157-17.523 38.094-28.476 61.635-30.903v14.371c0 22.994-5.618 45.828-16.246 66.033-2.57 4.888-.692 10.935 4.195 13.505 1.485.782 3.077 1.152 4.647 1.152 3.595 0 7.069-1.944 8.859-5.347 12.133-23.065 18.546-49.118 18.546-75.344v-24.884c0-5.523-4.478-10-10-10zm-246-89.98c41.714 31.122 66.416 80.076 66.416 132.315 0 52.238-24.702 101.193-66.416 132.314-41.714-31.121-66.416-80.076-66.416-132.314 0-52.239 24.702-101.193 66.416-132.315zm-154.416 52.118c38.306 4.922 68 37.739 68 77.362l.044.001c-.014.945-.044 1.888-.044 2.835 0 51.353 21.293 99.864 58.056 134.556-69.815-1.793-126.056-59.143-126.056-129.382zm-81.584 72.746v-14.371c23.54 2.426 45.479 13.379 61.635 30.903 1.38 53.511 31.034 100.109 74.539 125.387-75.612-3.093-136.174-65.561-136.174-141.919zm186.561 191.616c-22.851 0-45.364 6.082-65.108 17.586l-3.453 2.013v-5.497c0-24.078 19.589-43.667 43.667-43.667h63.088c-1.729 6.739-5.226 12.921-10.27 17.978-7.453 7.472-17.37 11.587-27.924 11.587zm167.439 19.599-3.453-2.013c-19.743-11.504-42.257-17.586-65.108-17.586-10.554 0-20.471-4.115-27.924-11.587-5.043-5.057-8.54-11.24-10.27-17.978h63.088c24.078 0 43.667 19.589 43.667 43.667zm36.416-198.59c0 70.239-56.241 127.589-126.056 129.382 36.763-34.692 58.056-83.203 58.056-134.556 0-.948-.029-1.891-.044-2.837l.044.002c0-39.623 29.694-72.44 68-77.362z"/><path id="XMLID_1064_" d="m458 307.25c-2.641 0-5.21 1.06-7.07 2.93-1.87 1.86-2.93 4.43-2.93 7.07 0 2.63 1.06 5.21 2.93 7.07 1.86 1.86 4.43 2.93 7.07 2.93 2.63 0 5.2-1.07 7.069-2.93 1.86-1.86 2.921-4.44 2.921-7.07 0-2.64-1.061-5.21-2.921-7.07-1.869-1.87-4.439-2.93-7.069-2.93z"/></g></g></svg>
    </symbol>

    <symbol id="stretch">
        <svg enable-background="new 0 0 512 512" viewBox="0 0 512 512" xmlns="http://www.w3.org/2000/svg"><g><path d="m367.709 361.317c.033-4.142-3.298-7.526-7.44-7.56-.021 0-.041 0-.062 0-4.113 0-7.465 3.318-7.499 7.44-.039 4.834-.387 9.588-1.033 14.237-10.279-1.186-37.728-2.281-62.777 14.797-10.397 7.089-18.948 15.969-25.399 26.117v-40.86c25.962-1.64 49.485-11.863 66.789-29.167 18.732-18.732 29.175-44.75 29.404-73.262.034-4.142-3.297-7.526-7.439-7.56-.021 0-.041 0-.062 0-4.113 0-7.465 3.318-7.498 7.44-.034 4.245-.328 8.422-.873 12.511-9.976-1.068-34.951-1.746-57.777 13.817-9.102 6.206-16.682 13.889-22.544 22.642v-43.539c23.716-1.63 45.201-11.023 61.041-26.862 17.288-17.289 26.925-41.294 27.137-67.594.033-4.142-3.298-7.526-7.44-7.56-.021 0-.041 0-.062 0-4.113 0-7.465 3.318-7.499 7.44-.029 3.66-.292 7.258-.739 10.791-9.502-.932-31.604-1.219-52.034 12.349l-.716.483c-3.422 2.333-4.306 6.999-1.972 10.421 1.452 2.13 3.807 3.276 6.204 3.276 1.455 0 2.925-.422 4.218-1.304l.574-.386c15.321-10.175 32.306-10.587 40.527-10.037-3.757 12.047-10.118 22.827-18.805 31.514-13.029 13.028-30.75 20.851-50.434 22.43v-73.083c21.473-1.616 40.917-10.194 55.292-24.57 15.844-15.844 24.676-37.836 24.87-61.926.033-4.142-3.298-7.526-7.44-7.56-.021 0-.041 0-.062 0-4.113 0-7.465 3.318-7.499 7.44-.024 3.088-.208 6.118-.546 9.079-9.165-.812-29.309-.756-47.782 11.839-6.583 4.489-12.228 9.888-16.833 15.984v-17.839c15.52-16.799 24.048-37.657 24.048-59.083 0-22.406-9.306-44.202-26.203-61.373-1.408-1.432-3.334-2.239-5.344-2.239s-3.936.807-5.346 2.24c-16.897 17.171-26.203 38.967-26.203 61.373 0 21.427 8.528 42.284 24.048 59.083v17.839c-4.604-6.095-10.249-11.495-16.833-15.984-18.475-12.596-38.619-12.649-47.782-11.839-.339-2.961-.522-5.991-.546-9.079-.033-4.122-3.385-7.44-7.499-7.44-.021 0-.041 0-.062 0-4.142.034-7.473 3.418-7.44 7.56.193 24.09 9.026 46.082 24.87 61.926 14.375 14.375 33.819 22.954 55.292 24.57v36.428c-5.247-7.399-11.858-13.92-19.688-19.259-20.633-14.067-43.167-13.776-52.773-12.832-.446-3.531-.687-7.133-.716-10.792-.034-4.142-3.441-7.503-7.56-7.44-4.142.034-7.473 3.418-7.44 7.56.211 26.3 9.849 50.305 27.137 67.594 15.839 15.839 37.325 25.232 61.041 26.862v43.539c-5.861-8.753-13.442-16.436-22.544-22.642-22.827-15.564-47.801-14.886-57.777-13.817-.545-4.089-.839-8.267-.873-12.511-.033-4.122-3.384-7.44-7.498-7.44-.021 0-.042 0-.062 0-4.142.033-7.473 3.418-7.439 7.56.229 28.512 10.671 54.53 29.404 73.262 17.304 17.304 40.828 27.527 66.789 29.167v81.166c-24.174-1.61-45.978-11.059-61.932-27.013-10.822-10.822-18.658-24.334-23.084-39.452 9.172-.854 31.273-1.128 51.166 12.435 1.644 1.121 3.256 2.311 4.794 3.536 1.381 1.101 3.031 1.636 4.67 1.636 2.205 0 4.389-.968 5.87-2.826 2.582-3.239 2.049-7.958-1.189-10.54-1.828-1.457-3.743-2.87-5.693-4.2-25.047-17.077-52.484-15.982-62.766-14.798-.647-4.649-1.005-9.401-1.044-14.236-.033-4.122-3.385-7.44-7.499-7.44-.021 0-.041 0-.062 0-4.142.034-7.473 3.418-7.44 7.56.247 30.722 11.495 58.753 31.671 78.931 18.768 18.769 44.334 29.805 72.538 31.454v32.799c0 4.142 3.358 7.5 7.5 7.5s7.5-3.358 7.5-7.5v-32.798c28.204-1.649 53.77-12.686 72.538-31.454 20.177-20.178 31.424-48.209 31.671-78.931zm-73.215-49.656c14.298-9.749 30.012-11.657 40.125-11.657 2.335 0 4.373.102 6.024.232-4.094 13.583-11.206 25.724-20.96 35.479-14.174 14.174-33.384 22.769-54.739 24.631 2.273-20.028 12.577-37.113 29.55-48.685zm-5.711-174.716c11.656-7.948 24.488-9.499 32.729-9.499 1.258 0 2.409.036 3.433.091-3.376 10.482-9.015 19.79-16.76 27.535-11.44 11.44-26.288 18.283-43.297 20.032 2.193-15.668 10.494-29.022 23.895-38.159zm-84.968 18.128c-7.752-7.752-13.393-17.069-16.769-27.562 7.693-.444 22.615.191 36.171 9.434 13.401 9.137 21.702 22.491 23.895 38.16-17.009-1.75-31.857-8.592-43.297-20.032zm-5.749 85.829c-8.688-8.688-15.072-19.462-18.828-31.513 8.333-.558 25.65-.129 41.124 10.422 15.186 10.354 24.49 25.572 26.728 43.418-19.121-1.831-36.306-9.609-49.024-22.327zm-5.749 94.813c-9.76-9.76-16.874-21.908-20.967-35.5 8.767-.726 28.423-.644 46.155 11.446 16.973 11.572 27.277 28.657 29.551 48.685-21.355-1.863-40.565-10.457-54.739-24.631zm63.683-317.002c10.854 13.292 16.548 28.671 16.548 44.899 0 16.229-5.694 31.608-16.548 44.899-10.854-13.291-16.548-28.671-16.548-44.899 0-16.227 5.694-31.607 16.548-44.899zm8.985 437.856c2.307-22.206 13.609-41.156 32.365-53.944 15.619-10.649 32.773-12.737 43.822-12.737 2.922 0 5.417.146 7.343.318-4.427 15.112-12.265 28.616-23.083 39.435-15.629 15.628-36.863 25.037-60.447 26.928z"/></g></svg>
    </symbol>

    

     <symbol id="toys">
        <svg viewBox="0 0 61 60" xmlns="http://www.w3.org/2000/svg"><g><path d="m16 11c0 1.71 2.149 3 5 3s5-1.29 5-3-2.149-3-5-3-5 1.29-5 3zm5-1c1.936 0 3 .751 3 1s-1.064 1-3 1-3-.751-3-1 1.064-1 3-1z"/><path d="m35 36c0 1.71 2.149 3 5 3s5-1.29 5-3-2.149-3-5-3-5 1.29-5 3zm8 0c0 .249-1.064 1-3 1s-3-.751-3-1 1.064-1 3-1 3 .751 3 1z"/><path d="m60 35c-.0062626-.0706735-.0203488-.1404338-.042-.208.1416705-.4863826-.1027564-1.00187-.569-1.2l-5.553-2.341c-.531-1.323-2.425-2.251-4.836-2.251-.715 0 .268.332-4.079-1.5-.321-1.257-1.85-2.21-3.921-2.443 0-16.4.039-15.657-.078-15.935-.1037969-.23502811-.2907665-.4234222-.525-.529-.192-.083.006 0-5.561-2.346-.531-1.319-2.425-2.247-4.836-2.247-.715 0 .268.332-4.079-1.5-.86-3.331-8.981-3.336-9.842 0-4.338 1.828-3.362 1.5-4.079 1.5-2.411 0-4.3.928-4.836 2.247-2.79 1.177-5.7 2.4-5.56 2.346-.21505716.09265275-.38868048.26093929-.488.473-.173.343-.116-1.981-.116 33.934-.00013709.4024898.24104147.765834.612.922 40.103 16.885 37.943 16.078 38.388 16.078.338 0-.92.472 19.388-8.078.1868398-.0671184.3410039-.2030404.431-.38.25-.377.181.826.181-16.542zm-19 8.174 17-7.158v14.32l-17 7.158zm11-11.174c0 .249-1.064 1-3 1s-3-.751-3-1 1.064-1 3-1 3 .751 3 1zm-3 3c1.6897708.1321594 3.3507086-.4945405 4.532-1.71l2.893 1.219-16.425 6.916-16.425-6.916 2.893-1.219c1.1812914 1.2154595 2.8422292 1.8421594 4.532 1.71 4.881 0 6.418-3.4 3.592-5.124l1.016-.428c1.833 2.074 6.952 2.073 8.784 0l1.016.428c-2.854 1.739-1.231 5.124 3.592 5.124zm-13.921-7.5c-4.338 1.828-3.362 1.5-4.079 1.5-2.411 0-4.3.928-4.836 2.247l-4.164 1.753v-14.826l17-7.158v14.041c-2.071.233-3.6 1.186-3.921 2.443zm-4.079 3.5c1.936 0 3 .751 3 1s-1.064 1-3 1-3-.751-3-1 1.064-1 3-1zm-28-19.984 17 7.158v14.826l-17-7.154zm40 16.984c0 .249-1.064 1-3 1s-3-.751-3-1 1.064-1 3-1 3 .751 3 1zm-10-21c0 .249-1.064 1-3 1s-3-.751-3-1 1.064-1 3-1 3 .751 3 1zm-12-5c1.936 0 3 .751 3 1s-1.064 1-3 1-3-.751-3-1 1.064-1 3-1zm-4.392 2.448c1.833 2.074 6.952 2.073 8.784 0l1.016.428c-.8142491.40656202-1.350629 1.21570334-1.408 2.124 0 3.354 7.44 4.054 9.532 1.29l2.892 1.219-16.424 6.916-16.424-6.916 2.892-1.219c2.09 2.761 9.532 2.067 9.532-1.29-.057371-.90829666-.5937509-1.71743798-1.408-2.124zm-4.608 1.552c1.936 0 3 .751 3 1s-1.064 1-3 1-3-.751-3-1 1.064-1 3-1zm-9 22.016 17.61 7.415 18.39 7.743v14.32l-36-15.158z"/><path id="Shape" d="m36.4 52.083-22-9.53c-.3295956-.1521805-.7157785-.1137825-1.0089549.1003198-.2931763.2141023-.447292.5702765-.4026479.9305529.044644.3602764.2810349.6680604.6176028.8041273l22 9.529c.3304506.1585417.7211554.1236044 1.0182342-.0910518s.4529246-.5746325.4061571-.9381512c-.0467675-.3635188-.2886538-.672326-.6303913-.804797z"/><path id="Shape" d="m9.4 40.382-3-1.3c-.50672126-.2209139-1.0965861.0107787-1.3175.5175s.01077874 1.0965861.5175 1.3175l3 1.3c.32779118.1429063.7069223.1000826.99457833-.1123398s.44013517-.5621714.40000001-.9175c-.04013516-.3553287-.26678715-.662254-.59457834-.8051602z"/></g></svg>
    </symbol>

    <symbol id="chfit">
        <svg viewBox="0 -54 512 512" xmlns="http://www.w3.org/2000/svg"><path d="m512 309.757812c0-.253906-.011719-.507812-.035156-.757812-1.726563-17.148438-9.132813-30.589844-22.019532-39.953125-9.8125-7.128906-22.382812-11.816406-39.5625-14.75-31.289062-5.332031-49.675781-9.34375-58.839843-12.867187l-3.128907-8.15625 1.234376-.296876c5.902343-1.40625 10.90625-5.03125 14.085937-10.199218 3.179687-5.171875 4.152344-11.273438 2.746094-17.175782-1.40625-5.902343-5.03125-10.90625-10.203125-14.085937s-11.273438-4.15625-17.171875-2.746094l-7.121094 1.695313-3.441406-8.96875 4.375-1.042969c5.90625-1.40625 10.90625-5.03125 14.085937-10.203125 3.179688-5.167969 4.15625-11.269531 2.75-17.171875-1.410156-5.902344-5.03125-10.90625-10.203125-14.085937-5.171875-3.179688-11.269531-4.152344-17.175781-2.746094l-13.40625 3.195312c-1.898438-1.925781-3.992188-3.644531-6.246094-5.132812 1.351563-9.035156 6.277344-21.859375 22.382813-30.082032 13.632812-6.976562 19.054687-23.742187 12.082031-37.371093-6.972656-13.636719-23.738281-19.0625-37.371094-12.09375-32.003906 16.359375-44.628906 41.695312-49.585937 60.066406-.835938 3.097656-1.507813 6.261719-2.039063 9.453125l-14.488281-1.433594c-24.605469-2.433594-47.234375-13.546875-63.714844-31.289062-16.308593-17.558594-25.289062-40.144532-25.289062-63.589844 0-3.355469.1875-6.789062.558593-10.203125.738282-6.722656-2.757812-13.015625-8.90625-16.03125-6.171874-3.03125-13.316406-2.027344-18.347656 2.539063l-142.351562 109.75c-.101563.078124-.195313.160156-.289063.246093-18.300781 16.261719-20.554687 43.785157-5.136719 62.652344l30.835938 37.792969c7.515625 9.195312 18.132812 15.152344 29.894531 16.777344 11.558594 1.59375 19.863281 11.546874 18.90625 22.65625-1.328125 15.421874 5.152344 30.320312 17.339844 39.863281l102.53125 80.273437c21.375 17.992188 48.707031 28.894532 76.972656 30.699219.160157.007813.320313.015625.480469.015625h.070312l126.023438-1.121094c1.949219.121094 3.886719.179688 5.816406.179688 34.902344-.003906 66.371094-19.179688 79.714844-48.546875.8125-1.792969 3.109375-8.082031 3.109375-8.082031l6.621094-19.679688c2.265625-5.660156 3.457031-11.738281 3.457031-17.992188zm-129.378906-106.253906c.589844-.136718 1.179687-.207031 1.769531-.207031 1.382813 0 2.746094.378906 3.953125 1.125 1.726562 1.058594 2.933594 2.726563 3.402344 4.695313s.144531 4-.914063 5.722656c-1.0625 1.722656-2.730469 2.929687-4.695312 3.402344l-28.5 6.792968c-.582031.140625-1.179688.210938-1.769531.210938-3.511719 0-6.539063-2.394532-7.355469-5.820313-.46875-1.96875-.144531-4 .917969-5.726562 1.058593-1.722657 2.726562-2.929688 4.695312-3.398438zm-25.5-9.492187-6.511719 1.550781c-5.902344 1.410156-10.90625 5.03125-14.085937 10.203125-3.179688 5.171875-4.152344 11.269531-2.746094 17.171875 2.449218 10.28125 11.535156 17.460938 22.089844 17.460938 1.773437 0 3.550781-.210938 5.285156-.625l12.394531-2.957032 4.683594 12.199219c.394531 1.039063 1.015625 1.972656 1.816406 2.742187l1.363281 1.3125c.640625.621094 1.390625 1.121094 2.207032 1.480469 6.566406 2.886719 17.746093 6.4375 53.050781 12.734375-12.09375 15.363282-32.097657 23.050782-51.804688 19.050782l-26.492187-5.375c-9.160156-1.859376-16.621094-8.546876-19.464844-17.449219l-39.242188-122.871094 23.503907 2.324219c2.246093.222656 4.417969.75 6.472656 1.535156-4.046875 1.855469-7.457031 4.863281-9.84375 8.742188-3.179687 5.171874-4.15625 11.269531-2.75 17.175781 2.453125 10.277343 11.539063 17.457031 22.09375 17.457031 1.773437 0 3.550781-.210938 5.28125-.625l9.257813-2.207031zm-207.640625 28.546875c18.847656-18.246094 29.121093-42.253906 30.554687-71.488282.003906-.015624.003906-.03125.003906-.046874l114.886719 24.578124 12.855469 40.257813-115.804688 47.886719zm216.410156-71.574219c.589844-.140625 1.183594-.210937 1.773437-.210937 1.382813 0 2.746094.378906 3.953126 1.125 1.722656 1.058593 2.929687 2.726562 3.398437 4.695312s.144531 4-.914063 5.726562c-1.0625 1.722657-2.726562 2.929688-4.695312 3.398438l-28.496094 6.796875c-.585937.136719-1.179687.207031-1.769531.207031-3.515625 0-6.539063-2.390625-7.355469-5.820312-.46875-1.96875-.144531-4 .914063-5.722656 1.0625-1.726563 2.726562-2.933594 4.695312-3.402344zm-61.03125-32.207031c4.15625-15.414063 14.792969-36.691406 41.855469-50.523438 6.191406-3.164062 13.816406-.699218 16.984375 5.503906 3.171875 6.191407.707031 13.8125-5.488281 16.980469-20.042969 10.238281-27.246094 26.242188-29.769532 37.71875-1.246094-.246093-2.507812-.441406-3.78125-.566406l-21.367187-2.113281c.425781-2.363282.945312-4.703125 1.566406-7zm-137.402344-102.65625c.242188-.179688.472657-.378906.691407-.589844.539062-.519531 1.128906-.394531 1.53125-.199219.578124.285157.546874.570313.523437.789063-.429687 3.960937-.648437 7.949218-.648437 11.847656 0 27.285156 10.417968 53.53125 29.339843 73.898438 18.996094 20.457031 45.039063 33.261718 73.324219 36.058593l11.023438 1.089844 6.375 19.957031-109.640626-23.457031c-1.007812-19.269531-5.453124-40.21875-13.304687-62.515625-1.390625-3.945312-5.71875-6.015625-9.660156-4.628906-3.949219 1.390625-6.019531 5.71875-4.628907 9.660156 25.78125 73.214844 8.027344 112.925781-13.796874 133.964844l-73.261719-71.011719c-6.253907-6.054687-9.882813-14.058594-10.214844-22.539063-.390625-9.847656 4.09375-19.558593 12.074219-26.375l68.742187-52.089843c1.488281 2.871093 3.292969 6.480469 5.261719 10.703125 1.285156 2.753906 4.019531 4.371094 6.871094 4.371094 1.074218 0 2.164062-.226563 3.199218-.710938 3.789063-1.769531 5.429688-6.277344 3.660157-10.066406-2.640625-5.65625-4.984375-10.246094-6.746094-13.5625zm246.507813 372.621094c-.183594-.011719-.367188-.019532-.550782-.015626l-126.011718 1.121094c-25.003906-1.65625-49.148438-11.320312-68.011719-27.234375-.070313-.058593-.140625-.117187-.214844-.171875l-102.636719-80.359375c-8.140624-6.375-12.472656-16.328125-11.582031-26.632812 1.652344-19.148438-12.375-36.265625-31.929687-38.964844-7.960938-1.097656-15.148438-5.132813-20.230469-11.351563l-30.835937-37.792968c-10.226563-12.515625-8.753907-30.761719 3.332031-41.628906l14.785156-11.871094c-.128906 1.722656-.175781 3.460937-.109375 5.203125.488281 12.390625 5.75 24.046875 14.8125 32.824219l78.296875 75.890624c.023437.019532.042969.042969.0625.0625l84.324219 81.730469c33.128906 32.105469 77.183594 49.785157 124.054687 49.785157h75.898438c4.183593 0 7.574219-3.390626 7.574219-7.574219 0-4.183594-3.390626-7.574219-7.574219-7.574219h-75.898438c-42.292969 0-83.664062-16.589844-113.511719-45.511719l-24.175781-23.4375 108.574219-44.898437 12.070312 37.78125c4.511719 14.128906 16.34375 24.738281 30.878907 27.6875l26.496093 5.375c4.480469.910156 8.972657 1.351562 13.417969 1.351562 23.335938 0 45.398438-12.140625 57.78125-32.316406 28.242188 5.871094 41.457031 18 43.796875 39.910156-.097656 9.007813-3.789062 17.476563-10.417968 23.882813-6.796876 6.5625-15.847657 10.175781-25.484376 10.175781h-13.53125c-4.183593 0-7.574218 3.390625-7.574218 7.574219 0 4.183593 3.390625 7.574219 7.574218 7.574219h13.53125c7.414063 0 14.582032-1.535157 21.136719-4.433594-12.96875 22.105468-39.46875 35.671875-68.117187 33.839844zm0 0"/><path d="m136.285156 363.777344h-94.765625c-4.183593 0-7.574219 3.390625-7.574219 7.574218 0 4.183594 3.390626 7.574219 7.574219 7.574219h94.765625c4.183594 0 7.574219-3.390625 7.574219-7.574219 0-4.183593-3.394531-7.574218-7.574219-7.574218zm0 0"/><path d="m67.519531 298.964844c0-4.183594-3.390625-7.578125-7.574219-7.578125h-50.402343c-4.1875 0-7.578125 3.394531-7.578125 7.578125 0 4.179687 3.390625 7.574218 7.578125 7.574218h50.402343c4.183594 0 7.574219-3.394531 7.574219-7.574218zm0 0"/></svg>
    </symbol>

    

    <symbol id="checkmark">
        <svg viewBox="0 -21 512 512" xmlns="http://www.w3.org/2000/svg"><path d="m234.667969 469.339844c-129.386719 0-234.667969-105.277344-234.667969-234.664063s105.28125-234.6679685 234.667969-234.6679685c44.992187 0 88.765625 12.8203125 126.589843 37.0976565 7.425782 4.78125 9.601563 14.679687 4.820313 22.125-4.796875 7.445312-14.675781 9.597656-22.121094 4.820312-32.640625-20.972656-70.441406-32.042969-109.289062-32.042969-111.746094 0-202.667969 90.921876-202.667969 202.667969 0 111.742188 90.921875 202.664063 202.667969 202.664063 111.742187 0 202.664062-90.921875 202.664062-202.664063 0-6.679687-.320312-13.292969-.9375-19.796875-.851562-8.8125 5.589844-16.621094 14.378907-17.472656 8.832031-.8125 16.617187 5.589844 17.472656 14.378906.722656 7.53125 1.085937 15.167969 1.085937 22.890625 0 129.386719-105.277343 234.664063-234.664062 234.664063zm0 0"/><path d="m261.332031 288.007812c-4.09375 0-8.191406-1.558593-11.304687-4.691406l-96-96c-6.25-6.253906-6.25-16.386718 0-22.636718s16.382812-6.25 22.632812 0l84.695313 84.695312 223.335937-223.339844c6.253906-6.25 16.386719-6.25 22.636719 0s6.25 16.382813 0 22.632813l-234.667969 234.667969c-3.136718 3.113281-7.230468 4.671874-11.328125 4.671874zm0 0"/></svg>
    </symbol>

 

    <symbol id="sculpt">
        <svg viewBox="0 -59 512 511" xmlns="http://www.w3.org/2000/svg"><g fill-rule="evenodd"><path d="m502 324.835938c-5.523438 0-10 4.476562-10 10v38.390624h-59.6875v-67.339843c0-5.523438-4.476562-10-10-10-5.519531 0-10 4.476562-10 10v67.339843h-59.621094v-67.339843c0-5.523438-4.476562-10-10-10-5.523437 0-10 4.476562-10 10v67.339843h-59.621094v-67.339843c0-5.523438-4.480468-10-10-10-5.523437 0-10 4.476562-10 10v67.339843h-59.625v-67.339843c0-5.523438-4.476562-10-10-10-5.523437 0-10 4.476562-10 10v66.738281c-16.128906-1.039062-31.761718-3.414062-46.542968-7.042969v-59.695312c0-5.523438-4.480469-10-10-10-5.523438 0-10 4.476562-10 10v53.847656c-13.902344-4.765625-26.796875-10.734375-38.328125-17.820313-.566407-.351562-1.121094-.707031-1.679688-1.058593v-60.433594c0-5.519531-4.476562-10-10-10-5.523437 0-10 4.480469-10 10v45.207031c-17.496093-16.230468-26.894531-34.972656-26.894531-54.375v-122.078125c.195312.25.402344.496094.601562.746094.257813.324219.515626.644531.777344.96875.441406.542969.894532 1.082031 1.351563 1.621094.246093.289062.488281.582031.738281.871093.574219.664063 1.160156 1.324219 1.753906 1.980469.140625.15625.273438.3125.414063.46875.738281.808594 1.496093 1.613281 2.265625 2.414063.214844.222656.4375.445312.65625.667968.5625.578126 1.132812 1.152344 1.710937 1.726563.289063.285156.585938.566406.878907.851563.527343.507812 1.058593 1.015624 1.597656 1.523437.3125.292969.632812.589844.953125.882813.542969.5 1.097656 1 1.652343 1.496093.3125.277344.625.554688.945313.832031.632813.558594 1.28125 1.109376 1.933594 1.660157.246093.203125.484375.414062.730469.617187.902343.75 1.816406 1.496094 2.75 2.234375.183593.148438.375.292969.5625.4375.75.589844 1.511718 1.179688 2.28125 1.761719.335937.253906.679687.507812 1.019531.761719.636719.472656 1.277343.941406 1.925781 1.410156.382812.273437.765625.546875 1.148438.816406.636718.453125 1.28125.902344 1.929687 1.347657.386719.265624.769531.527343 1.15625.789062.703125.472656 1.414063.941406 2.128906 1.414062.339844.21875.675781.441407 1.015625.664063 1.0625.683594 2.132813 1.359375 3.21875 2.027344 35.949219 22.105469 83.539063 34.277343 134.003906 34.277343h299.898438v38.390626c0 5.523437 4.476562 10 10 10s10-4.476563 10-10v-48.390626c0-5.523437-4.476562-10-10-10h-208.84375v-101.96875c0-26.035156-15.898438-50.148437-44.765625-67.898437-27.351563-16.816406-63.507813-26.078125-101.8125-26.078125s-74.464844 9.261719-101.8125 26.078125c-28.867187 17.746094-44.765625 41.863281-44.765625 67.898437v176.777344c0 33.515625 20.632812 64.65625 58.097656 87.695313 33.433594 20.554687 76.9375 32.515625 123.457032 34.089843.613281.121094 1.242187.1875 1.890624.1875.445313 0 .878907-.039062 1.308594-.097656 2.441406.058594 4.890625.097656 7.347656.097656h309.898438c5.523438 0 10-4.480468 10-10v-48.390624c0-5.523438-4.476562-10-10-10zm-446.761719-281.222657c24.246094-14.90625 56.679688-23.113281 91.339844-23.113281 34.65625 0 67.09375 8.207031 91.335937 23.113281 22.726563 13.972657 35.242188 32.035157 35.242188 50.863281 0 24.925782-37.117188 45.984376-81.050781 45.984376-2.847657 0-5.664063-.09375-8.445313-.265626 0 0 0-68.214843 0-68.222656 0-1.253906-.238281-2.507812-.699218-3.671875-.582032-1.457031-1.503907-2.773437-2.679688-3.816406-.855469-.757813-1.832031-1.3125-2.871094-1.777344-9.089844-4.066406-19.734375-6.226562-30.832031-6.226562-31.136719 0-55.523437 16.691406-55.523437 37.996093 0 18.558594 11.160156 35.640626 31.429687 48.101563 18.75 11.53125 43.476563 17.882813 69.621094 17.882813s50.867187-6.351563 69.621093-17.882813c4.210938-2.589844 8.023438-5.378906 11.429688-8.339844v62.207031h-81.050781c-46.820313 0-90.6875-11.121093-123.53125-31.3125-29.363281-18.058593-46.359375-41.238281-48.371094-65.742187-.132813-1.632813-.199219-3.273437-.199219-4.914063-.003906-18.824218 12.511719-36.890624 35.234375-50.863281zm108.421875 93.796875c-30.394531-6.695312-52.609375-23.652344-52.609375-42.933594 0-8.492187 15.195313-17.992187 35.527344-17.992187 6.054687 0 11.847656.832031 17.082031 2.410156zm0 0"/><path d="m502 284.835938c-5.507812 0-10 4.492187-10 10 0 5.507812 4.492188 10 10 10s10-4.492188 10-10c0-5.507813-4.492188-10-10-10zm0 0"/></g></svg>
    </symbol>

    <symbol id="abs">
        <svg xmlns="http://www.w3.org/2000/svg" viewBox="0 0 512 512"><path d="M448,112a31.97473,31.97473,0,0,0-26.08014,13.49225A39.90567,39.90567,0,0,0,392,112H376a56.06353,56.06353,0,0,0-56,56v28.68652l-96.40234-96.40234a41.941,41.941,0,0,0-59.31348,59.31348L287.23785,282.55127,275.42969,335.6875,94.71741,147.4458,65.21387,82.53809A45.36687,45.36687,0,0,0,24,56a7.99977,7.99977,0,0,0-8,8V192a7.99977,7.99977,0,0,0,8,8H43.79181L180.50537,398.856A131.74369,131.74369,0,0,0,226.21155,440H128v16H440V440H351.90887a131.97635,131.97635,0,0,0,56.69025-60.08057A251.08742,251.08742,0,0,0,432,274.43848V261.18469A71.88472,71.88472,0,0,0,488,288a7.99977,7.99977,0,0,0,8-8V160A48.05436,48.05436,0,0,0,448,112ZM368,224h-8a24.02687,24.02687,0,0,1-24-24V168a40.02741,40.02741,0,0,1,.80493-8H360v16a7.99877,7.99877,0,0,0,2.34326,5.65674l32,32A7.99877,7.99877,0,0,0,400,216h16v24H376v-8A7.99977,7.99977,0,0,0,368,224Zm8-96h16a24.02687,24.02687,0,0,1,24,24v48H403.31348L376,172.68652V152a7.99977,7.99977,0,0,0-8-8H344.02185A39.962,39.962,0,0,1,376,128Zm-208,1.94092a25.94129,25.94129,0,0,1,44.28418-18.34326L344.40234,243.71582a25.94129,25.94129,0,0,1-36.68652,36.68652L175.59766,148.28418A25.77164,25.77164,0,0,1,168,129.94092Zm57.19147,176.51831-55.11255,48.989L58.36218,192.95129l29.52124-29.52124ZM32,73.11963A29.34167,29.34167,0,0,1,50.64844,89.15918l27.77441,61.104L44.68652,184H32ZM289.1377,440a115.802,115.802,0,0,1-95.44776-50.2085l-14.47583-21.05566,57.06629-50.72559L274.229,357.54a7.97653,7.97653,0,0,0,2.42218,1.71558l-.00372.008,96.527,44.55091A116.25305,116.25305,0,0,1,289.1377,440ZM416,274.43848a234.98161,234.98161,0,0,1-21.8999,98.71484,114.80413,114.80413,0,0,1-10.41077,17.89233l-94.48059-43.60644,11.54163-51.9375A41.93943,41.93943,0,0,0,368,262.05908,42.54091,42.54091,0,0,0,367.56476,256H416Zm64-3.0083A56.08767,56.08767,0,0,1,432,216V144a16.01833,16.01833,0,0,1,16-16,32.036,32.036,0,0,1,32,32Z"/><rect x="96" y="440" width="16" height="16"/><rect x="456" y="440" width="16" height="16"/></svg>

    </symbol>

    

    <symbol id="attention">
        <svg viewBox="0 0 58 58" xmlns="http://www.w3.org/2000/svg"><g><g><path d="m25.017 33.983c-5.536-5.536-6.786-11.072-7.068-13.29-.0787994-.6132828.1322481-1.2283144.571-1.664l4.48-4.478c.6590136-.6586066.7759629-1.685024.282-2.475l-7.133-11.076c-.5464837-.87475134-1.6685624-1.19045777-2.591-.729l-11.451 5.393c-.74594117.367308-1.18469338 1.15985405-1.1 1.987.6 5.7 3.085 19.712 16.855 33.483s27.78 16.255 33.483 16.855c.827146.0846934 1.619692-.3540588 1.987-1.1l5.393-11.451c.4597307-.9204474.146114-2.0395184-.725-2.587l-11.076-7.131c-.7895259-.4944789-1.8158967-.3783642-2.475.28l-4.478 4.48c-.4356856.4387519-1.0507172.6497994-1.664.571-2.218-.282-7.754-1.532-13.29-7.068z"/><path d="m47 31c-1.1045695 0-2-.8954305-2-2-.0093685-8.2803876-6.7196124-14.9906315-15-15-1.1045695 0-2-.8954305-2-2s.8954305-2 2-2c10.4886126.0115735 18.9884265 8.5113874 19 19 0 1.1045695-.8954305 2-2 2z"/><path id="Shape" d="m57 31c-1.1045695 0-2-.8954305-2-2-.0154309-13.800722-11.199278-24.9845691-25-25-1.1045695 0-2-.8954305-2-2s.8954305-2 2-2c16.008947.01763587 28.9823641 12.991053 29 29 0 .530433-.2107137 1.0391408-.5857864 1.4142136-.3750728.3750727-.8837806.5857864-1.4142136.5857864z"/></g></g></svg>
        
    </symbol>

    

    <symbol id="chfit">
        <svg viewBox="0 -54 512 512" xmlns="http://www.w3.org/2000/svg"><path d="m512 309.757812c0-.253906-.011719-.507812-.035156-.757812-1.726563-17.148438-9.132813-30.589844-22.019532-39.953125-9.8125-7.128906-22.382812-11.816406-39.5625-14.75-31.289062-5.332031-49.675781-9.34375-58.839843-12.867187l-3.128907-8.15625 1.234376-.296876c5.902343-1.40625 10.90625-5.03125 14.085937-10.199218 3.179687-5.171875 4.152344-11.273438 2.746094-17.175782-1.40625-5.902343-5.03125-10.90625-10.203125-14.085937s-11.273438-4.15625-17.171875-2.746094l-7.121094 1.695313-3.441406-8.96875 4.375-1.042969c5.90625-1.40625 10.90625-5.03125 14.085937-10.203125 3.179688-5.167969 4.15625-11.269531 2.75-17.171875-1.410156-5.902344-5.03125-10.90625-10.203125-14.085937-5.171875-3.179688-11.269531-4.152344-17.175781-2.746094l-13.40625 3.195312c-1.898438-1.925781-3.992188-3.644531-6.246094-5.132812 1.351563-9.035156 6.277344-21.859375 22.382813-30.082032 13.632812-6.976562 19.054687-23.742187 12.082031-37.371093-6.972656-13.636719-23.738281-19.0625-37.371094-12.09375-32.003906 16.359375-44.628906 41.695312-49.585937 60.066406-.835938 3.097656-1.507813 6.261719-2.039063 9.453125l-14.488281-1.433594c-24.605469-2.433594-47.234375-13.546875-63.714844-31.289062-16.308593-17.558594-25.289062-40.144532-25.289062-63.589844 0-3.355469.1875-6.789062.558593-10.203125.738282-6.722656-2.757812-13.015625-8.90625-16.03125-6.171874-3.03125-13.316406-2.027344-18.347656 2.539063l-142.351562 109.75c-.101563.078124-.195313.160156-.289063.246093-18.300781 16.261719-20.554687 43.785157-5.136719 62.652344l30.835938 37.792969c7.515625 9.195312 18.132812 15.152344 29.894531 16.777344 11.558594 1.59375 19.863281 11.546874 18.90625 22.65625-1.328125 15.421874 5.152344 30.320312 17.339844 39.863281l102.53125 80.273437c21.375 17.992188 48.707031 28.894532 76.972656 30.699219.160157.007813.320313.015625.480469.015625h.070312l126.023438-1.121094c1.949219.121094 3.886719.179688 5.816406.179688 34.902344-.003906 66.371094-19.179688 79.714844-48.546875.8125-1.792969 3.109375-8.082031 3.109375-8.082031l6.621094-19.679688c2.265625-5.660156 3.457031-11.738281 3.457031-17.992188zm-129.378906-106.253906c.589844-.136718 1.179687-.207031 1.769531-.207031 1.382813 0 2.746094.378906 3.953125 1.125 1.726562 1.058594 2.933594 2.726563 3.402344 4.695313s.144531 4-.914063 5.722656c-1.0625 1.722656-2.730469 2.929687-4.695312 3.402344l-28.5 6.792968c-.582031.140625-1.179688.210938-1.769531.210938-3.511719 0-6.539063-2.394532-7.355469-5.820313-.46875-1.96875-.144531-4 .917969-5.726562 1.058593-1.722657 2.726562-2.929688 4.695312-3.398438zm-25.5-9.492187-6.511719 1.550781c-5.902344 1.410156-10.90625 5.03125-14.085937 10.203125-3.179688 5.171875-4.152344 11.269531-2.746094 17.171875 2.449218 10.28125 11.535156 17.460938 22.089844 17.460938 1.773437 0 3.550781-.210938 5.285156-.625l12.394531-2.957032 4.683594 12.199219c.394531 1.039063 1.015625 1.972656 1.816406 2.742187l1.363281 1.3125c.640625.621094 1.390625 1.121094 2.207032 1.480469 6.566406 2.886719 17.746093 6.4375 53.050781 12.734375-12.09375 15.363282-32.097657 23.050782-51.804688 19.050782l-26.492187-5.375c-9.160156-1.859376-16.621094-8.546876-19.464844-17.449219l-39.242188-122.871094 23.503907 2.324219c2.246093.222656 4.417969.75 6.472656 1.535156-4.046875 1.855469-7.457031 4.863281-9.84375 8.742188-3.179687 5.171874-4.15625 11.269531-2.75 17.175781 2.453125 10.277343 11.539063 17.457031 22.09375 17.457031 1.773437 0 3.550781-.210938 5.28125-.625l9.257813-2.207031zm-207.640625 28.546875c18.847656-18.246094 29.121093-42.253906 30.554687-71.488282.003906-.015624.003906-.03125.003906-.046874l114.886719 24.578124 12.855469 40.257813-115.804688 47.886719zm216.410156-71.574219c.589844-.140625 1.183594-.210937 1.773437-.210937 1.382813 0 2.746094.378906 3.953126 1.125 1.722656 1.058593 2.929687 2.726562 3.398437 4.695312s.144531 4-.914063 5.726562c-1.0625 1.722657-2.726562 2.929688-4.695312 3.398438l-28.496094 6.796875c-.585937.136719-1.179687.207031-1.769531.207031-3.515625 0-6.539063-2.390625-7.355469-5.820312-.46875-1.96875-.144531-4 .914063-5.722656 1.0625-1.726563 2.726562-2.933594 4.695312-3.402344zm-61.03125-32.207031c4.15625-15.414063 14.792969-36.691406 41.855469-50.523438 6.191406-3.164062 13.816406-.699218 16.984375 5.503906 3.171875 6.191407.707031 13.8125-5.488281 16.980469-20.042969 10.238281-27.246094 26.242188-29.769532 37.71875-1.246094-.246093-2.507812-.441406-3.78125-.566406l-21.367187-2.113281c.425781-2.363282.945312-4.703125 1.566406-7zm-137.402344-102.65625c.242188-.179688.472657-.378906.691407-.589844.539062-.519531 1.128906-.394531 1.53125-.199219.578124.285157.546874.570313.523437.789063-.429687 3.960937-.648437 7.949218-.648437 11.847656 0 27.285156 10.417968 53.53125 29.339843 73.898438 18.996094 20.457031 45.039063 33.261718 73.324219 36.058593l11.023438 1.089844 6.375 19.957031-109.640626-23.457031c-1.007812-19.269531-5.453124-40.21875-13.304687-62.515625-1.390625-3.945312-5.71875-6.015625-9.660156-4.628906-3.949219 1.390625-6.019531 5.71875-4.628907 9.660156 25.78125 73.214844 8.027344 112.925781-13.796874 133.964844l-73.261719-71.011719c-6.253907-6.054687-9.882813-14.058594-10.214844-22.539063-.390625-9.847656 4.09375-19.558593 12.074219-26.375l68.742187-52.089843c1.488281 2.871093 3.292969 6.480469 5.261719 10.703125 1.285156 2.753906 4.019531 4.371094 6.871094 4.371094 1.074218 0 2.164062-.226563 3.199218-.710938 3.789063-1.769531 5.429688-6.277344 3.660157-10.066406-2.640625-5.65625-4.984375-10.246094-6.746094-13.5625zm246.507813 372.621094c-.183594-.011719-.367188-.019532-.550782-.015626l-126.011718 1.121094c-25.003906-1.65625-49.148438-11.320312-68.011719-27.234375-.070313-.058593-.140625-.117187-.214844-.171875l-102.636719-80.359375c-8.140624-6.375-12.472656-16.328125-11.582031-26.632812 1.652344-19.148438-12.375-36.265625-31.929687-38.964844-7.960938-1.097656-15.148438-5.132813-20.230469-11.351563l-30.835937-37.792968c-10.226563-12.515625-8.753907-30.761719 3.332031-41.628906l14.785156-11.871094c-.128906 1.722656-.175781 3.460937-.109375 5.203125.488281 12.390625 5.75 24.046875 14.8125 32.824219l78.296875 75.890624c.023437.019532.042969.042969.0625.0625l84.324219 81.730469c33.128906 32.105469 77.183594 49.785157 124.054687 49.785157h75.898438c4.183593 0 7.574219-3.390626 7.574219-7.574219 0-4.183594-3.390626-7.574219-7.574219-7.574219h-75.898438c-42.292969 0-83.664062-16.589844-113.511719-45.511719l-24.175781-23.4375 108.574219-44.898437 12.070312 37.78125c4.511719 14.128906 16.34375 24.738281 30.878907 27.6875l26.496093 5.375c4.480469.910156 8.972657 1.351562 13.417969 1.351562 23.335938 0 45.398438-12.140625 57.78125-32.316406 28.242188 5.871094 41.457031 18 43.796875 39.910156-.097656 9.007813-3.789062 17.476563-10.417968 23.882813-6.796876 6.5625-15.847657 10.175781-25.484376 10.175781h-13.53125c-4.183593 0-7.574218 3.390625-7.574218 7.574219 0 4.183593 3.390625 7.574219 7.574218 7.574219h13.53125c7.414063 0 14.582032-1.535157 21.136719-4.433594-12.96875 22.105468-39.46875 35.671875-68.117187 33.839844zm0 0"/><path d="m136.285156 363.777344h-94.765625c-4.183593 0-7.574219 3.390625-7.574219 7.574218 0 4.183594 3.390626 7.574219 7.574219 7.574219h94.765625c4.183594 0 7.574219-3.390625 7.574219-7.574219 0-4.183593-3.394531-7.574218-7.574219-7.574218zm0 0"/><path d="m67.519531 298.964844c0-4.183594-3.390625-7.578125-7.574219-7.578125h-50.402343c-4.1875 0-7.578125 3.394531-7.578125 7.578125 0 4.179687 3.390625 7.574218 7.578125 7.574218h50.402343c4.183594 0 7.574219-3.394531 7.574219-7.574218zm0 0"/></svg>
    </symbol>

       <symbol id="sale">
        <svg viewBox="0 0 512 512" xmlns="http://www.w3.org/2000/svg"><path d="m502.335 77.815 6.741-6.741c3.905-3.905 3.905-10.237 0-14.143-3.905-3.904-10.237-3.904-14.143 0l-6.741 6.741-6.737-6.737c-1.875-1.875-4.419-2.929-7.071-2.929h-10.999l-51.077-51.077c-1.876-1.875-4.419-2.929-7.071-2.929h-369.222c-19.858 0-36.014 16.155-36.014 36.014v187.401c0 19.858 16.156 36.014 36.014 36.014h87.12l-58.585 58.586c-6.802 6.802-10.548 15.846-10.548 25.466 0 9.619 3.746 18.663 10.548 25.466l132.512 132.512c6.802 6.802 15.846 10.548 25.466 10.548s18.664-3.746 25.466-10.548l99.247-99.246c3.906-3.905 3.906-10.237 0-14.143-3.905-3.903-10.237-3.904-14.142 0l-99.248 99.246c-3.024 3.025-7.046 4.69-11.323 4.69s-8.299-1.665-11.323-4.69l-132.513-132.512c-3.024-3.024-4.69-7.046-4.69-11.323 0-4.278 1.666-8.299 4.69-11.323l258.15-258.15h133.401l3.808 3.808-23.124 23.124c-3.917-1.878-8.3-2.931-12.926-2.931-16.542 0-30 13.458-30 30s13.458 30 30 30 30-13.458 30-30c0-4.626-1.054-9.01-2.932-12.926l23.124-23.124 3.808 3.808v133.4l-95.264 95.265c-3.905 3.905-3.905 10.237 0 14.143 3.905 3.904 10.237 3.904 14.143 0l98.193-98.193c1.875-1.876 2.929-4.419 2.929-7.071v-141.688c0-2.652-1.054-5.195-2.929-7.071zm-322.755 101.62c-5.516 0-10.003-4.487-10.003-10.003 0-5.517 4.487-10.004 10.003-10.004s10.003 4.487 10.003 10.004c0 5.515-4.487 10.003-10.003 10.003zm153.12-125.428c-2.652 0-5.196 1.054-7.071 2.929l-116.294 116.293c.158-1.245.249-2.511.249-3.798 0-16.544-13.459-30.004-30.003-30.004-16.543 0-30.003 13.46-30.003 30.004s13.459 30.003 30.003 30.003c1.287 0 2.553-.091 3.798-.249l-40.243 40.243h-107.121c-8.83 0-16.014-7.184-16.014-16.014v-187.4c0-8.83 7.184-16.014 16.014-16.014h365.079l34.007 34.007zm105.301 84c-5.514 0-10-4.486-10-10s4.486-10 10-10c2.282 0 4.382.777 6.067 2.069.265.346.547.684.863 1s.654.598 1 .863c1.292 1.685 2.069 3.785 2.069 6.067.001 5.515-4.485 10.001-9.999 10.001z"/><path d="m332.599 295.835c2.652 0 5.196-1.054 7.071-2.929l22.627-22.628c3.905-3.905 3.905-10.237 0-14.143-3.905-3.904-10.237-3.904-14.142 0l-15.556 15.557-49.498-49.497c-3.904-3.904-10.237-3.904-14.142 0-3.905 3.905-3.905 10.237 0 14.143l56.569 56.568c1.876 1.875 4.42 2.929 7.071 2.929z"/><path d="m410.381 208.053c-3.905-3.904-10.237-3.904-14.143 0l-12.728 12.728-14.142-14.141 12.728-12.728c3.905-3.905 3.905-10.237 0-14.143-3.905-3.904-10.237-3.904-14.143 0l-12.728 12.728-14.142-14.142 12.728-12.728c3.905-3.905 3.906-10.237 0-14.143-3.905-3.903-10.237-3.904-14.142 0l-19.799 19.799c-1.875 1.875-2.929 4.419-2.929 7.071s1.054 5.195 2.929 7.071l56.569 56.568c1.952 1.952 4.512 2.929 7.071 2.929s5.119-.977 7.071-2.929l19.799-19.799c3.906-3.904 3.906-10.236.001-14.141z"/><path d="m299.776 323.029c4.919 2.508 10.942.55 13.45-4.371 2.507-4.921.55-10.942-4.372-13.449l-74.953-38.184c-3.86-1.967-8.547-1.224-11.61 1.839s-3.806 7.751-1.839 11.61l38.184 74.953c1.766 3.468 5.276 5.464 8.918 5.463 1.527 0 3.078-.351 4.531-1.092 4.921-2.507 6.878-8.528 4.372-13.449l-3.066-6.02 20.367-20.367zm-35.932-1.437-11.604-22.779 22.78 11.605z"/><path d="m203.906 400.386c-3.905 3.905-3.906 10.237 0 14.143 1.953 1.952 4.512 2.929 7.071 2.929s5.119-.977 7.071-2.929l14.143-14.142c11.697-11.697 11.697-30.729 0-42.427-11.118-11.118-28.857-11.66-40.632-1.644-.366.277-.722.571-1.055.905l-.74.739c-1.889 1.889-4.4 2.929-7.071 2.929s-5.182-1.04-7.071-2.929c-3.899-3.899-3.899-10.243 0-14.143l14.142-14.142c3.905-3.905 3.906-10.237 0-14.143-3.905-3.903-10.237-3.904-14.142 0l-14.143 14.142c-11.697 11.697-11.697 30.73 0 42.428 5.667 5.666 13.2 8.786 21.213 8.786 8.002 0 15.526-3.112 21.192-8.766.007-.007.015-.013.022-.02 3.898-3.9 10.243-3.9 14.142 0 1.889 1.889 2.929 4.399 2.929 7.07 0 2.672-1.04 5.183-2.929 7.071z"/><path d="m171.339 64.557c-4.809-2.714-10.909-1.018-13.624 3.792l-64.5 114.254c-2.715 4.81-1.018 10.909 3.792 13.624 1.554.877 3.241 1.294 4.907 1.294 3.49 0 6.879-1.83 8.717-5.086l64.5-114.254c2.715-4.81 1.018-10.91-3.792-13.624z"/><path d="m125.176 89.997c0-16.544-13.459-30.003-30.003-30.003s-30.004 13.459-30.004 30.003 13.459 30.004 30.003 30.004 30.004-13.46 30.004-30.004zm-40.007 0c0-5.516 4.487-10.003 10.003-10.003s10.003 4.487 10.003 10.003c0 5.517-4.487 10.004-10.003 10.004s-10.003-4.487-10.003-10.004z"/><path d="m371.991 353.319c-2.64 0-5.21 1.07-7.07 2.931-1.86 1.859-2.93 4.439-2.93 7.069 0 2.631 1.07 5.211 2.93 7.07 1.86 1.86 4.43 2.93 7.07 2.93 2.63 0 5.21-1.069 7.07-2.93 1.86-1.859 2.93-4.439 2.93-7.07 0-2.63-1.07-5.21-2.93-7.069-1.86-1.86-4.44-2.931-7.07-2.931z"/></svg>
    </symbol>

    

    

    



</svg>